%TF.GenerationSoftware,KiCad,Pcbnew,10.0.3*%
%TF.CreationDate,2026-08-07T19:01:10+02:00*%
%TF.ProjectId,flipperhat,666c6970-7065-4726-9861-742e6b696361,rev?*%
%TF.SameCoordinates,Original*%
%TF.FileFunction,Legend,Top*%
%TF.FilePolarity,Positive*%
%FSLAX46Y46*%
G04 Gerber Fmt 4.6, Leading zero omitted, Abs format (unit mm)*
G04 Created by KiCad (PCBNEW 10.0.3) date 2026-08-07 19:01:10*
%MOMM*%
%LPD*%
G01*
G04 APERTURE LIST*
%ADD10C,0.200000*%
%ADD11C,0.254000*%
%ADD12C,0.150000*%
%ADD13C,0.100000*%
%ADD14C,0.120000*%
G04 APERTURE END LIST*
D10*
X95893482Y-117414838D02*
X95798244Y-117367219D01*
X95798244Y-117367219D02*
X95655387Y-117367219D01*
X95655387Y-117367219D02*
X95512530Y-117414838D01*
X95512530Y-117414838D02*
X95417292Y-117510076D01*
X95417292Y-117510076D02*
X95369673Y-117605314D01*
X95369673Y-117605314D02*
X95322054Y-117795790D01*
X95322054Y-117795790D02*
X95322054Y-117938647D01*
X95322054Y-117938647D02*
X95369673Y-118129123D01*
X95369673Y-118129123D02*
X95417292Y-118224361D01*
X95417292Y-118224361D02*
X95512530Y-118319600D01*
X95512530Y-118319600D02*
X95655387Y-118367219D01*
X95655387Y-118367219D02*
X95750625Y-118367219D01*
X95750625Y-118367219D02*
X95893482Y-118319600D01*
X95893482Y-118319600D02*
X95941101Y-118271980D01*
X95941101Y-118271980D02*
X95941101Y-117938647D01*
X95941101Y-117938647D02*
X95750625Y-117938647D01*
X96369673Y-118367219D02*
X96369673Y-117367219D01*
X96369673Y-117367219D02*
X96941101Y-118367219D01*
X96941101Y-118367219D02*
X96941101Y-117367219D01*
X97417292Y-118367219D02*
X97417292Y-117367219D01*
X97417292Y-117367219D02*
X97655387Y-117367219D01*
X97655387Y-117367219D02*
X97798244Y-117414838D01*
X97798244Y-117414838D02*
X97893482Y-117510076D01*
X97893482Y-117510076D02*
X97941101Y-117605314D01*
X97941101Y-117605314D02*
X97988720Y-117795790D01*
X97988720Y-117795790D02*
X97988720Y-117938647D01*
X97988720Y-117938647D02*
X97941101Y-118129123D01*
X97941101Y-118129123D02*
X97893482Y-118224361D01*
X97893482Y-118224361D02*
X97798244Y-118319600D01*
X97798244Y-118319600D02*
X97655387Y-118367219D01*
X97655387Y-118367219D02*
X97417292Y-118367219D01*
X120274435Y-117367219D02*
X120893482Y-117367219D01*
X120893482Y-117367219D02*
X120560149Y-117748171D01*
X120560149Y-117748171D02*
X120703006Y-117748171D01*
X120703006Y-117748171D02*
X120798244Y-117795790D01*
X120798244Y-117795790D02*
X120845863Y-117843409D01*
X120845863Y-117843409D02*
X120893482Y-117938647D01*
X120893482Y-117938647D02*
X120893482Y-118176742D01*
X120893482Y-118176742D02*
X120845863Y-118271980D01*
X120845863Y-118271980D02*
X120798244Y-118319600D01*
X120798244Y-118319600D02*
X120703006Y-118367219D01*
X120703006Y-118367219D02*
X120417292Y-118367219D01*
X120417292Y-118367219D02*
X120322054Y-118319600D01*
X120322054Y-118319600D02*
X120274435Y-118271980D01*
X121322054Y-118271980D02*
X121369673Y-118319600D01*
X121369673Y-118319600D02*
X121322054Y-118367219D01*
X121322054Y-118367219D02*
X121274435Y-118319600D01*
X121274435Y-118319600D02*
X121322054Y-118271980D01*
X121322054Y-118271980D02*
X121322054Y-118367219D01*
X121703006Y-117367219D02*
X122322053Y-117367219D01*
X122322053Y-117367219D02*
X121988720Y-117748171D01*
X121988720Y-117748171D02*
X122131577Y-117748171D01*
X122131577Y-117748171D02*
X122226815Y-117795790D01*
X122226815Y-117795790D02*
X122274434Y-117843409D01*
X122274434Y-117843409D02*
X122322053Y-117938647D01*
X122322053Y-117938647D02*
X122322053Y-118176742D01*
X122322053Y-118176742D02*
X122274434Y-118271980D01*
X122274434Y-118271980D02*
X122226815Y-118319600D01*
X122226815Y-118319600D02*
X122131577Y-118367219D01*
X122131577Y-118367219D02*
X121845863Y-118367219D01*
X121845863Y-118367219D02*
X121750625Y-118319600D01*
X121750625Y-118319600D02*
X121703006Y-118271980D01*
X122607768Y-117367219D02*
X122941101Y-118367219D01*
X122941101Y-118367219D02*
X123274434Y-117367219D01*
D11*
X82076667Y-116517318D02*
X82076667Y-117424461D01*
X82076667Y-117424461D02*
X82016190Y-117605889D01*
X82016190Y-117605889D02*
X81895238Y-117726842D01*
X81895238Y-117726842D02*
X81713809Y-117787318D01*
X81713809Y-117787318D02*
X81592857Y-117787318D01*
X83346667Y-117787318D02*
X82620952Y-117787318D01*
X82983809Y-117787318D02*
X82983809Y-116517318D01*
X82983809Y-116517318D02*
X82862857Y-116698746D01*
X82862857Y-116698746D02*
X82741905Y-116819699D01*
X82741905Y-116819699D02*
X82620952Y-116880175D01*
X117453365Y-117211666D02*
X117513842Y-117272142D01*
X117513842Y-117272142D02*
X117574318Y-117453571D01*
X117574318Y-117453571D02*
X117574318Y-117574523D01*
X117574318Y-117574523D02*
X117513842Y-117755952D01*
X117513842Y-117755952D02*
X117392889Y-117876904D01*
X117392889Y-117876904D02*
X117271937Y-117937381D01*
X117271937Y-117937381D02*
X117030032Y-117997857D01*
X117030032Y-117997857D02*
X116848603Y-117997857D01*
X116848603Y-117997857D02*
X116606699Y-117937381D01*
X116606699Y-117937381D02*
X116485746Y-117876904D01*
X116485746Y-117876904D02*
X116364794Y-117755952D01*
X116364794Y-117755952D02*
X116304318Y-117574523D01*
X116304318Y-117574523D02*
X116304318Y-117453571D01*
X116304318Y-117453571D02*
X116364794Y-117272142D01*
X116364794Y-117272142D02*
X116425270Y-117211666D01*
X116304318Y-116788333D02*
X116304318Y-116002142D01*
X116304318Y-116002142D02*
X116788127Y-116425476D01*
X116788127Y-116425476D02*
X116788127Y-116244047D01*
X116788127Y-116244047D02*
X116848603Y-116123095D01*
X116848603Y-116123095D02*
X116909080Y-116062619D01*
X116909080Y-116062619D02*
X117030032Y-116002142D01*
X117030032Y-116002142D02*
X117332413Y-116002142D01*
X117332413Y-116002142D02*
X117453365Y-116062619D01*
X117453365Y-116062619D02*
X117513842Y-116123095D01*
X117513842Y-116123095D02*
X117574318Y-116244047D01*
X117574318Y-116244047D02*
X117574318Y-116606904D01*
X117574318Y-116606904D02*
X117513842Y-116727857D01*
X117513842Y-116727857D02*
X117453365Y-116788333D01*
X140953365Y-105434666D02*
X141013842Y-105495142D01*
X141013842Y-105495142D02*
X141074318Y-105676571D01*
X141074318Y-105676571D02*
X141074318Y-105797523D01*
X141074318Y-105797523D02*
X141013842Y-105978952D01*
X141013842Y-105978952D02*
X140892889Y-106099904D01*
X140892889Y-106099904D02*
X140771937Y-106160381D01*
X140771937Y-106160381D02*
X140530032Y-106220857D01*
X140530032Y-106220857D02*
X140348603Y-106220857D01*
X140348603Y-106220857D02*
X140106699Y-106160381D01*
X140106699Y-106160381D02*
X139985746Y-106099904D01*
X139985746Y-106099904D02*
X139864794Y-105978952D01*
X139864794Y-105978952D02*
X139804318Y-105797523D01*
X139804318Y-105797523D02*
X139804318Y-105676571D01*
X139804318Y-105676571D02*
X139864794Y-105495142D01*
X139864794Y-105495142D02*
X139925270Y-105434666D01*
X141074318Y-104225142D02*
X141074318Y-104950857D01*
X141074318Y-104588000D02*
X139804318Y-104588000D01*
X139804318Y-104588000D02*
X139985746Y-104708952D01*
X139985746Y-104708952D02*
X140106699Y-104829904D01*
X140106699Y-104829904D02*
X140167175Y-104950857D01*
D12*
X123333333Y-98174819D02*
X123000000Y-97698628D01*
X122761905Y-98174819D02*
X122761905Y-97174819D01*
X122761905Y-97174819D02*
X123142857Y-97174819D01*
X123142857Y-97174819D02*
X123238095Y-97222438D01*
X123238095Y-97222438D02*
X123285714Y-97270057D01*
X123285714Y-97270057D02*
X123333333Y-97365295D01*
X123333333Y-97365295D02*
X123333333Y-97508152D01*
X123333333Y-97508152D02*
X123285714Y-97603390D01*
X123285714Y-97603390D02*
X123238095Y-97651009D01*
X123238095Y-97651009D02*
X123142857Y-97698628D01*
X123142857Y-97698628D02*
X122761905Y-97698628D01*
X124190476Y-97508152D02*
X124190476Y-98174819D01*
X123952381Y-97127200D02*
X123714286Y-97841485D01*
X123714286Y-97841485D02*
X124333333Y-97841485D01*
X94084819Y-83666666D02*
X93608628Y-83999999D01*
X94084819Y-84238094D02*
X93084819Y-84238094D01*
X93084819Y-84238094D02*
X93084819Y-83857142D01*
X93084819Y-83857142D02*
X93132438Y-83761904D01*
X93132438Y-83761904D02*
X93180057Y-83714285D01*
X93180057Y-83714285D02*
X93275295Y-83666666D01*
X93275295Y-83666666D02*
X93418152Y-83666666D01*
X93418152Y-83666666D02*
X93513390Y-83714285D01*
X93513390Y-83714285D02*
X93561009Y-83761904D01*
X93561009Y-83761904D02*
X93608628Y-83857142D01*
X93608628Y-83857142D02*
X93608628Y-84238094D01*
X94084819Y-83190475D02*
X94084819Y-82999999D01*
X94084819Y-82999999D02*
X94037200Y-82904761D01*
X94037200Y-82904761D02*
X93989580Y-82857142D01*
X93989580Y-82857142D02*
X93846723Y-82761904D01*
X93846723Y-82761904D02*
X93656247Y-82714285D01*
X93656247Y-82714285D02*
X93275295Y-82714285D01*
X93275295Y-82714285D02*
X93180057Y-82761904D01*
X93180057Y-82761904D02*
X93132438Y-82809523D01*
X93132438Y-82809523D02*
X93084819Y-82904761D01*
X93084819Y-82904761D02*
X93084819Y-83095237D01*
X93084819Y-83095237D02*
X93132438Y-83190475D01*
X93132438Y-83190475D02*
X93180057Y-83238094D01*
X93180057Y-83238094D02*
X93275295Y-83285713D01*
X93275295Y-83285713D02*
X93513390Y-83285713D01*
X93513390Y-83285713D02*
X93608628Y-83238094D01*
X93608628Y-83238094D02*
X93656247Y-83190475D01*
X93656247Y-83190475D02*
X93703866Y-83095237D01*
X93703866Y-83095237D02*
X93703866Y-82904761D01*
X93703866Y-82904761D02*
X93656247Y-82809523D01*
X93656247Y-82809523D02*
X93608628Y-82761904D01*
X93608628Y-82761904D02*
X93513390Y-82714285D01*
X123333333Y-112904819D02*
X123000000Y-112428628D01*
X122761905Y-112904819D02*
X122761905Y-111904819D01*
X122761905Y-111904819D02*
X123142857Y-111904819D01*
X123142857Y-111904819D02*
X123238095Y-111952438D01*
X123238095Y-111952438D02*
X123285714Y-112000057D01*
X123285714Y-112000057D02*
X123333333Y-112095295D01*
X123333333Y-112095295D02*
X123333333Y-112238152D01*
X123333333Y-112238152D02*
X123285714Y-112333390D01*
X123285714Y-112333390D02*
X123238095Y-112381009D01*
X123238095Y-112381009D02*
X123142857Y-112428628D01*
X123142857Y-112428628D02*
X122761905Y-112428628D01*
X124285714Y-112904819D02*
X123714286Y-112904819D01*
X124000000Y-112904819D02*
X124000000Y-111904819D01*
X124000000Y-111904819D02*
X123904762Y-112047676D01*
X123904762Y-112047676D02*
X123809524Y-112142914D01*
X123809524Y-112142914D02*
X123714286Y-112190533D01*
X123333333Y-103084819D02*
X123000000Y-102608628D01*
X122761905Y-103084819D02*
X122761905Y-102084819D01*
X122761905Y-102084819D02*
X123142857Y-102084819D01*
X123142857Y-102084819D02*
X123238095Y-102132438D01*
X123238095Y-102132438D02*
X123285714Y-102180057D01*
X123285714Y-102180057D02*
X123333333Y-102275295D01*
X123333333Y-102275295D02*
X123333333Y-102418152D01*
X123333333Y-102418152D02*
X123285714Y-102513390D01*
X123285714Y-102513390D02*
X123238095Y-102561009D01*
X123238095Y-102561009D02*
X123142857Y-102608628D01*
X123142857Y-102608628D02*
X122761905Y-102608628D01*
X123666667Y-102084819D02*
X124285714Y-102084819D01*
X124285714Y-102084819D02*
X123952381Y-102465771D01*
X123952381Y-102465771D02*
X124095238Y-102465771D01*
X124095238Y-102465771D02*
X124190476Y-102513390D01*
X124190476Y-102513390D02*
X124238095Y-102561009D01*
X124238095Y-102561009D02*
X124285714Y-102656247D01*
X124285714Y-102656247D02*
X124285714Y-102894342D01*
X124285714Y-102894342D02*
X124238095Y-102989580D01*
X124238095Y-102989580D02*
X124190476Y-103037200D01*
X124190476Y-103037200D02*
X124095238Y-103084819D01*
X124095238Y-103084819D02*
X123809524Y-103084819D01*
X123809524Y-103084819D02*
X123714286Y-103037200D01*
X123714286Y-103037200D02*
X123666667Y-102989580D01*
D11*
X92953365Y-78211666D02*
X93013842Y-78272142D01*
X93013842Y-78272142D02*
X93074318Y-78453571D01*
X93074318Y-78453571D02*
X93074318Y-78574523D01*
X93074318Y-78574523D02*
X93013842Y-78755952D01*
X93013842Y-78755952D02*
X92892889Y-78876904D01*
X92892889Y-78876904D02*
X92771937Y-78937381D01*
X92771937Y-78937381D02*
X92530032Y-78997857D01*
X92530032Y-78997857D02*
X92348603Y-78997857D01*
X92348603Y-78997857D02*
X92106699Y-78937381D01*
X92106699Y-78937381D02*
X91985746Y-78876904D01*
X91985746Y-78876904D02*
X91864794Y-78755952D01*
X91864794Y-78755952D02*
X91804318Y-78574523D01*
X91804318Y-78574523D02*
X91804318Y-78453571D01*
X91804318Y-78453571D02*
X91864794Y-78272142D01*
X91864794Y-78272142D02*
X91925270Y-78211666D01*
X92227651Y-77123095D02*
X93074318Y-77123095D01*
X91743842Y-77425476D02*
X92650984Y-77727857D01*
X92650984Y-77727857D02*
X92650984Y-76941666D01*
D12*
X93979819Y-86936904D02*
X94789342Y-86936904D01*
X94789342Y-86936904D02*
X94884580Y-86889285D01*
X94884580Y-86889285D02*
X94932200Y-86841666D01*
X94932200Y-86841666D02*
X94979819Y-86746428D01*
X94979819Y-86746428D02*
X94979819Y-86555952D01*
X94979819Y-86555952D02*
X94932200Y-86460714D01*
X94932200Y-86460714D02*
X94884580Y-86413095D01*
X94884580Y-86413095D02*
X94789342Y-86365476D01*
X94789342Y-86365476D02*
X93979819Y-86365476D01*
X94979819Y-85365476D02*
X94979819Y-85936904D01*
X94979819Y-85651190D02*
X93979819Y-85651190D01*
X93979819Y-85651190D02*
X94122676Y-85746428D01*
X94122676Y-85746428D02*
X94217914Y-85841666D01*
X94217914Y-85841666D02*
X94265533Y-85936904D01*
X123333333Y-88354819D02*
X123000000Y-87878628D01*
X122761905Y-88354819D02*
X122761905Y-87354819D01*
X122761905Y-87354819D02*
X123142857Y-87354819D01*
X123142857Y-87354819D02*
X123238095Y-87402438D01*
X123238095Y-87402438D02*
X123285714Y-87450057D01*
X123285714Y-87450057D02*
X123333333Y-87545295D01*
X123333333Y-87545295D02*
X123333333Y-87688152D01*
X123333333Y-87688152D02*
X123285714Y-87783390D01*
X123285714Y-87783390D02*
X123238095Y-87831009D01*
X123238095Y-87831009D02*
X123142857Y-87878628D01*
X123142857Y-87878628D02*
X122761905Y-87878628D01*
X124190476Y-87354819D02*
X124000000Y-87354819D01*
X124000000Y-87354819D02*
X123904762Y-87402438D01*
X123904762Y-87402438D02*
X123857143Y-87450057D01*
X123857143Y-87450057D02*
X123761905Y-87592914D01*
X123761905Y-87592914D02*
X123714286Y-87783390D01*
X123714286Y-87783390D02*
X123714286Y-88164342D01*
X123714286Y-88164342D02*
X123761905Y-88259580D01*
X123761905Y-88259580D02*
X123809524Y-88307200D01*
X123809524Y-88307200D02*
X123904762Y-88354819D01*
X123904762Y-88354819D02*
X124095238Y-88354819D01*
X124095238Y-88354819D02*
X124190476Y-88307200D01*
X124190476Y-88307200D02*
X124238095Y-88259580D01*
X124238095Y-88259580D02*
X124285714Y-88164342D01*
X124285714Y-88164342D02*
X124285714Y-87926247D01*
X124285714Y-87926247D02*
X124238095Y-87831009D01*
X124238095Y-87831009D02*
X124190476Y-87783390D01*
X124190476Y-87783390D02*
X124095238Y-87735771D01*
X124095238Y-87735771D02*
X123904762Y-87735771D01*
X123904762Y-87735771D02*
X123809524Y-87783390D01*
X123809524Y-87783390D02*
X123761905Y-87831009D01*
X123761905Y-87831009D02*
X123714286Y-87926247D01*
X94084819Y-72766666D02*
X93608628Y-73099999D01*
X94084819Y-73338094D02*
X93084819Y-73338094D01*
X93084819Y-73338094D02*
X93084819Y-72957142D01*
X93084819Y-72957142D02*
X93132438Y-72861904D01*
X93132438Y-72861904D02*
X93180057Y-72814285D01*
X93180057Y-72814285D02*
X93275295Y-72766666D01*
X93275295Y-72766666D02*
X93418152Y-72766666D01*
X93418152Y-72766666D02*
X93513390Y-72814285D01*
X93513390Y-72814285D02*
X93561009Y-72861904D01*
X93561009Y-72861904D02*
X93608628Y-72957142D01*
X93608628Y-72957142D02*
X93608628Y-73338094D01*
X93513390Y-72195237D02*
X93465771Y-72290475D01*
X93465771Y-72290475D02*
X93418152Y-72338094D01*
X93418152Y-72338094D02*
X93322914Y-72385713D01*
X93322914Y-72385713D02*
X93275295Y-72385713D01*
X93275295Y-72385713D02*
X93180057Y-72338094D01*
X93180057Y-72338094D02*
X93132438Y-72290475D01*
X93132438Y-72290475D02*
X93084819Y-72195237D01*
X93084819Y-72195237D02*
X93084819Y-72004761D01*
X93084819Y-72004761D02*
X93132438Y-71909523D01*
X93132438Y-71909523D02*
X93180057Y-71861904D01*
X93180057Y-71861904D02*
X93275295Y-71814285D01*
X93275295Y-71814285D02*
X93322914Y-71814285D01*
X93322914Y-71814285D02*
X93418152Y-71861904D01*
X93418152Y-71861904D02*
X93465771Y-71909523D01*
X93465771Y-71909523D02*
X93513390Y-72004761D01*
X93513390Y-72004761D02*
X93513390Y-72195237D01*
X93513390Y-72195237D02*
X93561009Y-72290475D01*
X93561009Y-72290475D02*
X93608628Y-72338094D01*
X93608628Y-72338094D02*
X93703866Y-72385713D01*
X93703866Y-72385713D02*
X93894342Y-72385713D01*
X93894342Y-72385713D02*
X93989580Y-72338094D01*
X93989580Y-72338094D02*
X94037200Y-72290475D01*
X94037200Y-72290475D02*
X94084819Y-72195237D01*
X94084819Y-72195237D02*
X94084819Y-72004761D01*
X94084819Y-72004761D02*
X94037200Y-71909523D01*
X94037200Y-71909523D02*
X93989580Y-71861904D01*
X93989580Y-71861904D02*
X93894342Y-71814285D01*
X93894342Y-71814285D02*
X93703866Y-71814285D01*
X93703866Y-71814285D02*
X93608628Y-71861904D01*
X93608628Y-71861904D02*
X93561009Y-71909523D01*
X93561009Y-71909523D02*
X93513390Y-72004761D01*
X123333333Y-93264819D02*
X123000000Y-92788628D01*
X122761905Y-93264819D02*
X122761905Y-92264819D01*
X122761905Y-92264819D02*
X123142857Y-92264819D01*
X123142857Y-92264819D02*
X123238095Y-92312438D01*
X123238095Y-92312438D02*
X123285714Y-92360057D01*
X123285714Y-92360057D02*
X123333333Y-92455295D01*
X123333333Y-92455295D02*
X123333333Y-92598152D01*
X123333333Y-92598152D02*
X123285714Y-92693390D01*
X123285714Y-92693390D02*
X123238095Y-92741009D01*
X123238095Y-92741009D02*
X123142857Y-92788628D01*
X123142857Y-92788628D02*
X122761905Y-92788628D01*
X124238095Y-92264819D02*
X123761905Y-92264819D01*
X123761905Y-92264819D02*
X123714286Y-92741009D01*
X123714286Y-92741009D02*
X123761905Y-92693390D01*
X123761905Y-92693390D02*
X123857143Y-92645771D01*
X123857143Y-92645771D02*
X124095238Y-92645771D01*
X124095238Y-92645771D02*
X124190476Y-92693390D01*
X124190476Y-92693390D02*
X124238095Y-92741009D01*
X124238095Y-92741009D02*
X124285714Y-92836247D01*
X124285714Y-92836247D02*
X124285714Y-93074342D01*
X124285714Y-93074342D02*
X124238095Y-93169580D01*
X124238095Y-93169580D02*
X124190476Y-93217200D01*
X124190476Y-93217200D02*
X124095238Y-93264819D01*
X124095238Y-93264819D02*
X123857143Y-93264819D01*
X123857143Y-93264819D02*
X123761905Y-93217200D01*
X123761905Y-93217200D02*
X123714286Y-93169580D01*
D11*
X135260237Y-92994318D02*
X135260237Y-91724318D01*
X136590714Y-92873365D02*
X136530238Y-92933842D01*
X136530238Y-92933842D02*
X136348809Y-92994318D01*
X136348809Y-92994318D02*
X136227857Y-92994318D01*
X136227857Y-92994318D02*
X136046428Y-92933842D01*
X136046428Y-92933842D02*
X135925476Y-92812889D01*
X135925476Y-92812889D02*
X135864999Y-92691937D01*
X135864999Y-92691937D02*
X135804523Y-92450032D01*
X135804523Y-92450032D02*
X135804523Y-92268603D01*
X135804523Y-92268603D02*
X135864999Y-92026699D01*
X135864999Y-92026699D02*
X135925476Y-91905746D01*
X135925476Y-91905746D02*
X136046428Y-91784794D01*
X136046428Y-91784794D02*
X136227857Y-91724318D01*
X136227857Y-91724318D02*
X136348809Y-91724318D01*
X136348809Y-91724318D02*
X136530238Y-91784794D01*
X136530238Y-91784794D02*
X136590714Y-91845270D01*
X137800238Y-92994318D02*
X137074523Y-92994318D01*
X137437380Y-92994318D02*
X137437380Y-91724318D01*
X137437380Y-91724318D02*
X137316428Y-91905746D01*
X137316428Y-91905746D02*
X137195476Y-92026699D01*
X137195476Y-92026699D02*
X137074523Y-92087175D01*
X77129523Y-71074318D02*
X76706189Y-70469556D01*
X76403808Y-71074318D02*
X76403808Y-69804318D01*
X76403808Y-69804318D02*
X76887618Y-69804318D01*
X76887618Y-69804318D02*
X77008570Y-69864794D01*
X77008570Y-69864794D02*
X77069047Y-69925270D01*
X77069047Y-69925270D02*
X77129523Y-70046222D01*
X77129523Y-70046222D02*
X77129523Y-70227651D01*
X77129523Y-70227651D02*
X77069047Y-70348603D01*
X77069047Y-70348603D02*
X77008570Y-70409080D01*
X77008570Y-70409080D02*
X76887618Y-70469556D01*
X76887618Y-70469556D02*
X76403808Y-70469556D01*
X77673808Y-70409080D02*
X78097142Y-70409080D01*
X78278570Y-71074318D02*
X77673808Y-71074318D01*
X77673808Y-71074318D02*
X77673808Y-69804318D01*
X77673808Y-69804318D02*
X78278570Y-69804318D01*
X78762380Y-71013842D02*
X78943809Y-71074318D01*
X78943809Y-71074318D02*
X79246190Y-71074318D01*
X79246190Y-71074318D02*
X79367142Y-71013842D01*
X79367142Y-71013842D02*
X79427618Y-70953365D01*
X79427618Y-70953365D02*
X79488095Y-70832413D01*
X79488095Y-70832413D02*
X79488095Y-70711461D01*
X79488095Y-70711461D02*
X79427618Y-70590508D01*
X79427618Y-70590508D02*
X79367142Y-70530032D01*
X79367142Y-70530032D02*
X79246190Y-70469556D01*
X79246190Y-70469556D02*
X79004285Y-70409080D01*
X79004285Y-70409080D02*
X78883333Y-70348603D01*
X78883333Y-70348603D02*
X78822856Y-70288127D01*
X78822856Y-70288127D02*
X78762380Y-70167175D01*
X78762380Y-70167175D02*
X78762380Y-70046222D01*
X78762380Y-70046222D02*
X78822856Y-69925270D01*
X78822856Y-69925270D02*
X78883333Y-69864794D01*
X78883333Y-69864794D02*
X79004285Y-69804318D01*
X79004285Y-69804318D02*
X79306666Y-69804318D01*
X79306666Y-69804318D02*
X79488095Y-69864794D01*
X80032380Y-70409080D02*
X80455714Y-70409080D01*
X80637142Y-71074318D02*
X80032380Y-71074318D01*
X80032380Y-71074318D02*
X80032380Y-69804318D01*
X80032380Y-69804318D02*
X80637142Y-69804318D01*
X81000000Y-69804318D02*
X81725714Y-69804318D01*
X81362857Y-71074318D02*
X81362857Y-69804318D01*
X81846667Y-71195270D02*
X82814286Y-71195270D01*
X83116666Y-71074318D02*
X83116666Y-69804318D01*
X84447143Y-70953365D02*
X84386667Y-71013842D01*
X84386667Y-71013842D02*
X84205238Y-71074318D01*
X84205238Y-71074318D02*
X84084286Y-71074318D01*
X84084286Y-71074318D02*
X83902857Y-71013842D01*
X83902857Y-71013842D02*
X83781905Y-70892889D01*
X83781905Y-70892889D02*
X83721428Y-70771937D01*
X83721428Y-70771937D02*
X83660952Y-70530032D01*
X83660952Y-70530032D02*
X83660952Y-70348603D01*
X83660952Y-70348603D02*
X83721428Y-70106699D01*
X83721428Y-70106699D02*
X83781905Y-69985746D01*
X83781905Y-69985746D02*
X83902857Y-69864794D01*
X83902857Y-69864794D02*
X84084286Y-69804318D01*
X84084286Y-69804318D02*
X84205238Y-69804318D01*
X84205238Y-69804318D02*
X84386667Y-69864794D01*
X84386667Y-69864794D02*
X84447143Y-69925270D01*
X84930952Y-69925270D02*
X84991428Y-69864794D01*
X84991428Y-69864794D02*
X85112381Y-69804318D01*
X85112381Y-69804318D02*
X85414762Y-69804318D01*
X85414762Y-69804318D02*
X85535714Y-69864794D01*
X85535714Y-69864794D02*
X85596190Y-69925270D01*
X85596190Y-69925270D02*
X85656667Y-70046222D01*
X85656667Y-70046222D02*
X85656667Y-70167175D01*
X85656667Y-70167175D02*
X85596190Y-70348603D01*
X85596190Y-70348603D02*
X84870476Y-71074318D01*
X84870476Y-71074318D02*
X85656667Y-71074318D01*
X132953365Y-105434666D02*
X133013842Y-105495142D01*
X133013842Y-105495142D02*
X133074318Y-105676571D01*
X133074318Y-105676571D02*
X133074318Y-105797523D01*
X133074318Y-105797523D02*
X133013842Y-105978952D01*
X133013842Y-105978952D02*
X132892889Y-106099904D01*
X132892889Y-106099904D02*
X132771937Y-106160381D01*
X132771937Y-106160381D02*
X132530032Y-106220857D01*
X132530032Y-106220857D02*
X132348603Y-106220857D01*
X132348603Y-106220857D02*
X132106699Y-106160381D01*
X132106699Y-106160381D02*
X131985746Y-106099904D01*
X131985746Y-106099904D02*
X131864794Y-105978952D01*
X131864794Y-105978952D02*
X131804318Y-105797523D01*
X131804318Y-105797523D02*
X131804318Y-105676571D01*
X131804318Y-105676571D02*
X131864794Y-105495142D01*
X131864794Y-105495142D02*
X131925270Y-105434666D01*
X131925270Y-104950857D02*
X131864794Y-104890381D01*
X131864794Y-104890381D02*
X131804318Y-104769428D01*
X131804318Y-104769428D02*
X131804318Y-104467047D01*
X131804318Y-104467047D02*
X131864794Y-104346095D01*
X131864794Y-104346095D02*
X131925270Y-104285619D01*
X131925270Y-104285619D02*
X132046222Y-104225142D01*
X132046222Y-104225142D02*
X132167175Y-104225142D01*
X132167175Y-104225142D02*
X132348603Y-104285619D01*
X132348603Y-104285619D02*
X133074318Y-105011333D01*
X133074318Y-105011333D02*
X133074318Y-104225142D01*
D12*
X94494819Y-120833333D02*
X95209104Y-120833333D01*
X95209104Y-120833333D02*
X95351961Y-120880952D01*
X95351961Y-120880952D02*
X95447200Y-120976190D01*
X95447200Y-120976190D02*
X95494819Y-121119047D01*
X95494819Y-121119047D02*
X95494819Y-121214285D01*
X94494819Y-120452380D02*
X94494819Y-119833333D01*
X94494819Y-119833333D02*
X94875771Y-120166666D01*
X94875771Y-120166666D02*
X94875771Y-120023809D01*
X94875771Y-120023809D02*
X94923390Y-119928571D01*
X94923390Y-119928571D02*
X94971009Y-119880952D01*
X94971009Y-119880952D02*
X95066247Y-119833333D01*
X95066247Y-119833333D02*
X95304342Y-119833333D01*
X95304342Y-119833333D02*
X95399580Y-119880952D01*
X95399580Y-119880952D02*
X95447200Y-119928571D01*
X95447200Y-119928571D02*
X95494819Y-120023809D01*
X95494819Y-120023809D02*
X95494819Y-120309523D01*
X95494819Y-120309523D02*
X95447200Y-120404761D01*
X95447200Y-120404761D02*
X95399580Y-120452380D01*
D11*
X76686428Y-80727651D02*
X77170237Y-80727651D01*
X76867856Y-81574318D02*
X76867856Y-80485746D01*
X76867856Y-80485746D02*
X76928333Y-80364794D01*
X76928333Y-80364794D02*
X77049285Y-80304318D01*
X77049285Y-80304318D02*
X77170237Y-80304318D01*
X77774999Y-81574318D02*
X77654047Y-81513842D01*
X77654047Y-81513842D02*
X77593570Y-81392889D01*
X77593570Y-81392889D02*
X77593570Y-80304318D01*
X78803094Y-81574318D02*
X78803094Y-80909080D01*
X78803094Y-80909080D02*
X78742618Y-80788127D01*
X78742618Y-80788127D02*
X78621666Y-80727651D01*
X78621666Y-80727651D02*
X78379761Y-80727651D01*
X78379761Y-80727651D02*
X78258808Y-80788127D01*
X78803094Y-81513842D02*
X78682142Y-81574318D01*
X78682142Y-81574318D02*
X78379761Y-81574318D01*
X78379761Y-81574318D02*
X78258808Y-81513842D01*
X78258808Y-81513842D02*
X78198332Y-81392889D01*
X78198332Y-81392889D02*
X78198332Y-81271937D01*
X78198332Y-81271937D02*
X78258808Y-81150984D01*
X78258808Y-81150984D02*
X78379761Y-81090508D01*
X78379761Y-81090508D02*
X78682142Y-81090508D01*
X78682142Y-81090508D02*
X78803094Y-81030032D01*
X79347380Y-81513842D02*
X79468333Y-81574318D01*
X79468333Y-81574318D02*
X79710237Y-81574318D01*
X79710237Y-81574318D02*
X79831190Y-81513842D01*
X79831190Y-81513842D02*
X79891666Y-81392889D01*
X79891666Y-81392889D02*
X79891666Y-81332413D01*
X79891666Y-81332413D02*
X79831190Y-81211461D01*
X79831190Y-81211461D02*
X79710237Y-81150984D01*
X79710237Y-81150984D02*
X79528809Y-81150984D01*
X79528809Y-81150984D02*
X79407856Y-81090508D01*
X79407856Y-81090508D02*
X79347380Y-80969556D01*
X79347380Y-80969556D02*
X79347380Y-80909080D01*
X79347380Y-80909080D02*
X79407856Y-80788127D01*
X79407856Y-80788127D02*
X79528809Y-80727651D01*
X79528809Y-80727651D02*
X79710237Y-80727651D01*
X79710237Y-80727651D02*
X79831190Y-80788127D01*
X80435951Y-81574318D02*
X80435951Y-80304318D01*
X80980237Y-81574318D02*
X80980237Y-80909080D01*
X80980237Y-80909080D02*
X80919761Y-80788127D01*
X80919761Y-80788127D02*
X80798809Y-80727651D01*
X80798809Y-80727651D02*
X80617380Y-80727651D01*
X80617380Y-80727651D02*
X80496428Y-80788127D01*
X80496428Y-80788127D02*
X80435951Y-80848603D01*
X81282619Y-81695270D02*
X82250238Y-81695270D01*
X82552618Y-81574318D02*
X82552618Y-80304318D01*
X83883095Y-81453365D02*
X83822619Y-81513842D01*
X83822619Y-81513842D02*
X83641190Y-81574318D01*
X83641190Y-81574318D02*
X83520238Y-81574318D01*
X83520238Y-81574318D02*
X83338809Y-81513842D01*
X83338809Y-81513842D02*
X83217857Y-81392889D01*
X83217857Y-81392889D02*
X83157380Y-81271937D01*
X83157380Y-81271937D02*
X83096904Y-81030032D01*
X83096904Y-81030032D02*
X83096904Y-80848603D01*
X83096904Y-80848603D02*
X83157380Y-80606699D01*
X83157380Y-80606699D02*
X83217857Y-80485746D01*
X83217857Y-80485746D02*
X83338809Y-80364794D01*
X83338809Y-80364794D02*
X83520238Y-80304318D01*
X83520238Y-80304318D02*
X83641190Y-80304318D01*
X83641190Y-80304318D02*
X83822619Y-80364794D01*
X83822619Y-80364794D02*
X83883095Y-80425270D01*
X84306428Y-80304318D02*
X85092619Y-80304318D01*
X85092619Y-80304318D02*
X84669285Y-80788127D01*
X84669285Y-80788127D02*
X84850714Y-80788127D01*
X84850714Y-80788127D02*
X84971666Y-80848603D01*
X84971666Y-80848603D02*
X85032142Y-80909080D01*
X85032142Y-80909080D02*
X85092619Y-81030032D01*
X85092619Y-81030032D02*
X85092619Y-81332413D01*
X85092619Y-81332413D02*
X85032142Y-81453365D01*
X85032142Y-81453365D02*
X84971666Y-81513842D01*
X84971666Y-81513842D02*
X84850714Y-81574318D01*
X84850714Y-81574318D02*
X84487857Y-81574318D01*
X84487857Y-81574318D02*
X84366904Y-81513842D01*
X84366904Y-81513842D02*
X84306428Y-81453365D01*
D12*
X94857142Y-112804819D02*
X94523809Y-112328628D01*
X94285714Y-112804819D02*
X94285714Y-111804819D01*
X94285714Y-111804819D02*
X94666666Y-111804819D01*
X94666666Y-111804819D02*
X94761904Y-111852438D01*
X94761904Y-111852438D02*
X94809523Y-111900057D01*
X94809523Y-111900057D02*
X94857142Y-111995295D01*
X94857142Y-111995295D02*
X94857142Y-112138152D01*
X94857142Y-112138152D02*
X94809523Y-112233390D01*
X94809523Y-112233390D02*
X94761904Y-112281009D01*
X94761904Y-112281009D02*
X94666666Y-112328628D01*
X94666666Y-112328628D02*
X94285714Y-112328628D01*
X95809523Y-112804819D02*
X95238095Y-112804819D01*
X95523809Y-112804819D02*
X95523809Y-111804819D01*
X95523809Y-111804819D02*
X95428571Y-111947676D01*
X95428571Y-111947676D02*
X95333333Y-112042914D01*
X95333333Y-112042914D02*
X95238095Y-112090533D01*
X96428571Y-111804819D02*
X96523809Y-111804819D01*
X96523809Y-111804819D02*
X96619047Y-111852438D01*
X96619047Y-111852438D02*
X96666666Y-111900057D01*
X96666666Y-111900057D02*
X96714285Y-111995295D01*
X96714285Y-111995295D02*
X96761904Y-112185771D01*
X96761904Y-112185771D02*
X96761904Y-112423866D01*
X96761904Y-112423866D02*
X96714285Y-112614342D01*
X96714285Y-112614342D02*
X96666666Y-112709580D01*
X96666666Y-112709580D02*
X96619047Y-112757200D01*
X96619047Y-112757200D02*
X96523809Y-112804819D01*
X96523809Y-112804819D02*
X96428571Y-112804819D01*
X96428571Y-112804819D02*
X96333333Y-112757200D01*
X96333333Y-112757200D02*
X96285714Y-112709580D01*
X96285714Y-112709580D02*
X96238095Y-112614342D01*
X96238095Y-112614342D02*
X96190476Y-112423866D01*
X96190476Y-112423866D02*
X96190476Y-112185771D01*
X96190476Y-112185771D02*
X96238095Y-111995295D01*
X96238095Y-111995295D02*
X96285714Y-111900057D01*
X96285714Y-111900057D02*
X96333333Y-111852438D01*
X96333333Y-111852438D02*
X96428571Y-111804819D01*
X123333333Y-107994819D02*
X123000000Y-107518628D01*
X122761905Y-107994819D02*
X122761905Y-106994819D01*
X122761905Y-106994819D02*
X123142857Y-106994819D01*
X123142857Y-106994819D02*
X123238095Y-107042438D01*
X123238095Y-107042438D02*
X123285714Y-107090057D01*
X123285714Y-107090057D02*
X123333333Y-107185295D01*
X123333333Y-107185295D02*
X123333333Y-107328152D01*
X123333333Y-107328152D02*
X123285714Y-107423390D01*
X123285714Y-107423390D02*
X123238095Y-107471009D01*
X123238095Y-107471009D02*
X123142857Y-107518628D01*
X123142857Y-107518628D02*
X122761905Y-107518628D01*
X123714286Y-107090057D02*
X123761905Y-107042438D01*
X123761905Y-107042438D02*
X123857143Y-106994819D01*
X123857143Y-106994819D02*
X124095238Y-106994819D01*
X124095238Y-106994819D02*
X124190476Y-107042438D01*
X124190476Y-107042438D02*
X124238095Y-107090057D01*
X124238095Y-107090057D02*
X124285714Y-107185295D01*
X124285714Y-107185295D02*
X124285714Y-107280533D01*
X124285714Y-107280533D02*
X124238095Y-107423390D01*
X124238095Y-107423390D02*
X123666667Y-107994819D01*
X123666667Y-107994819D02*
X124285714Y-107994819D01*
X73814819Y-101708333D02*
X74529104Y-101708333D01*
X74529104Y-101708333D02*
X74671961Y-101755952D01*
X74671961Y-101755952D02*
X74767200Y-101851190D01*
X74767200Y-101851190D02*
X74814819Y-101994047D01*
X74814819Y-101994047D02*
X74814819Y-102089285D01*
X73910057Y-101279761D02*
X73862438Y-101232142D01*
X73862438Y-101232142D02*
X73814819Y-101136904D01*
X73814819Y-101136904D02*
X73814819Y-100898809D01*
X73814819Y-100898809D02*
X73862438Y-100803571D01*
X73862438Y-100803571D02*
X73910057Y-100755952D01*
X73910057Y-100755952D02*
X74005295Y-100708333D01*
X74005295Y-100708333D02*
X74100533Y-100708333D01*
X74100533Y-100708333D02*
X74243390Y-100755952D01*
X74243390Y-100755952D02*
X74814819Y-101327380D01*
X74814819Y-101327380D02*
X74814819Y-100708333D01*
X95333333Y-107804819D02*
X95000000Y-107328628D01*
X94761905Y-107804819D02*
X94761905Y-106804819D01*
X94761905Y-106804819D02*
X95142857Y-106804819D01*
X95142857Y-106804819D02*
X95238095Y-106852438D01*
X95238095Y-106852438D02*
X95285714Y-106900057D01*
X95285714Y-106900057D02*
X95333333Y-106995295D01*
X95333333Y-106995295D02*
X95333333Y-107138152D01*
X95333333Y-107138152D02*
X95285714Y-107233390D01*
X95285714Y-107233390D02*
X95238095Y-107281009D01*
X95238095Y-107281009D02*
X95142857Y-107328628D01*
X95142857Y-107328628D02*
X94761905Y-107328628D01*
X95666667Y-106804819D02*
X96333333Y-106804819D01*
X96333333Y-106804819D02*
X95904762Y-107804819D01*
%TO.C,J1*%
D10*
X78330000Y-117700000D02*
X78330000Y-116100000D01*
X78330000Y-120500000D02*
X78330000Y-121138000D01*
X78330000Y-121138000D02*
X86670000Y-121138000D01*
D13*
X79300000Y-112800000D02*
X79300000Y-112800000D01*
X79300000Y-112900000D02*
X79300000Y-112900000D01*
D10*
X86670000Y-117900000D02*
X86670000Y-116100000D01*
X86670000Y-121138000D02*
X86670000Y-120300000D01*
D13*
X79300000Y-112800000D02*
G75*
G02*
X79300000Y-112900000I0J-50000D01*
G01*
X79300000Y-112900000D02*
G75*
G02*
X79300000Y-112800000I0J50000D01*
G01*
%TO.C,R4*%
D14*
X125677064Y-93380000D02*
X121322936Y-93380000D01*
X125677064Y-96800000D02*
X121322936Y-96800000D01*
%TO.C,R9*%
X89290000Y-81322936D02*
X89290000Y-85677064D01*
X92710000Y-81322936D02*
X92710000Y-85677064D01*
%TO.C,R1*%
X125677064Y-108110000D02*
X121322936Y-108110000D01*
X125677064Y-111530000D02*
X121322936Y-111530000D01*
%TO.C,R3*%
X125677064Y-98290000D02*
X121322936Y-98290000D01*
X125677064Y-101710000D02*
X121322936Y-101710000D01*
%TO.C,U1*%
X95825000Y-61875000D02*
X95825000Y-68075000D01*
X95825000Y-61875000D02*
X114225000Y-61875000D01*
X95825000Y-86725000D02*
X95825000Y-87725000D01*
X95825000Y-87725000D02*
X97325000Y-87725000D01*
X114225000Y-61875000D02*
X114225000Y-68075000D01*
X114225000Y-87725000D02*
X112725000Y-87725000D01*
X114225000Y-87725000D02*
X114225000Y-86725000D01*
X95825000Y-68750000D02*
X95325000Y-68750000D01*
X95825000Y-68250000D01*
X95825000Y-68750000D01*
G36*
X95825000Y-68750000D02*
G01*
X95325000Y-68750000D01*
X95825000Y-68250000D01*
X95825000Y-68750000D01*
G37*
%TO.C,R6*%
X125677064Y-83560000D02*
X121322936Y-83560000D01*
X125677064Y-86980000D02*
X121322936Y-86980000D01*
%TO.C,R8*%
X89290000Y-70422936D02*
X89290000Y-74777064D01*
X92710000Y-70422936D02*
X92710000Y-74777064D01*
%TO.C,R5*%
X125677064Y-88470000D02*
X121322936Y-88470000D01*
X125677064Y-91890000D02*
X121322936Y-91890000D01*
%TO.C,IC1*%
D10*
X131420000Y-92820000D02*
X131420000Y-94788000D01*
X131420000Y-94788000D02*
X141580000Y-94788000D01*
D13*
X133960000Y-101236000D02*
X133960000Y-101236000D01*
X133960000Y-101335000D02*
X133960000Y-101335000D01*
D10*
X141580000Y-94788000D02*
X141580000Y-92820000D01*
D13*
X133960000Y-101236000D02*
G75*
G02*
X133960000Y-101335000I0J-49500D01*
G01*
X133960000Y-101335000D02*
G75*
G02*
X133960000Y-101236000I0J49500D01*
G01*
%TO.C,RESET_IC2*%
X74850000Y-72500000D02*
X74850000Y-72500000D01*
X74950000Y-72500000D02*
X74950000Y-72500000D01*
D10*
X77950000Y-71750000D02*
X83950000Y-71750000D01*
X77950000Y-77750000D02*
X77950000Y-71750000D01*
X83950000Y-71750000D02*
X83950000Y-77750000D01*
X83950000Y-77750000D02*
X77950000Y-77750000D01*
D13*
X74850000Y-72500000D02*
G75*
G02*
X74950000Y-72500000I50000J0D01*
G01*
X74950000Y-72500000D02*
G75*
G02*
X74850000Y-72500000I-50000J0D01*
G01*
%TO.C,J3*%
D14*
X96040000Y-121880000D02*
X96040000Y-120500000D01*
X97420000Y-121880000D02*
X96040000Y-121880000D01*
X98690000Y-119120000D02*
X121660000Y-119120000D01*
X98690000Y-121880000D02*
X98690000Y-119120000D01*
X98690000Y-121880000D02*
X121660000Y-121880000D01*
X121660000Y-121880000D02*
X121660000Y-119120000D01*
%TO.C,flash_IC3*%
D13*
X74850000Y-83000000D02*
X74850000Y-83000000D01*
X74950000Y-83000000D02*
X74950000Y-83000000D01*
D10*
X77950000Y-82250000D02*
X83950000Y-82250000D01*
X77950000Y-88250000D02*
X77950000Y-82250000D01*
X83950000Y-82250000D02*
X83950000Y-88250000D01*
X83950000Y-88250000D02*
X77950000Y-88250000D01*
D13*
X74850000Y-83000000D02*
G75*
G02*
X74950000Y-83000000I50000J0D01*
G01*
X74950000Y-83000000D02*
G75*
G02*
X74850000Y-83000000I-50000J0D01*
G01*
%TO.C,R10*%
D14*
X95272936Y-113265000D02*
X95727064Y-113265000D01*
X95272936Y-114735000D02*
X95727064Y-114735000D01*
%TO.C,R2*%
X125677064Y-103200000D02*
X121322936Y-103200000D01*
X125677064Y-106620000D02*
X121322936Y-106620000D01*
%TO.C,J2*%
X75040000Y-106375000D02*
X75040000Y-96375000D01*
X75640000Y-106875000D02*
X75840000Y-106075000D01*
X75740000Y-96375000D02*
X75640000Y-95875000D01*
X75840000Y-106075000D02*
X76140000Y-104375000D01*
X76040000Y-97675000D02*
X75740000Y-96375000D01*
X76140000Y-104375000D02*
X76240000Y-103575000D01*
X76240000Y-99175000D02*
X76040000Y-97675000D01*
X76240000Y-103575000D02*
X76340000Y-102275000D01*
X76340000Y-100475000D02*
X76240000Y-99175000D01*
X76340000Y-102275000D02*
X76340000Y-100475000D01*
X76540000Y-94465000D02*
X76940000Y-94465000D01*
X76540000Y-95875000D02*
X75540000Y-95875000D01*
X76540000Y-106875000D02*
X75540000Y-106875000D01*
X76540000Y-108285000D02*
X76540000Y-94465000D01*
X76540000Y-108285000D02*
X76940000Y-108285000D01*
X79460000Y-94465000D02*
X85240000Y-94465000D01*
X79460000Y-108285000D02*
X85240000Y-108285000D01*
X87760000Y-94465000D02*
X90460000Y-94465000D01*
X87760000Y-108285000D02*
X90460000Y-108285000D01*
X90460000Y-94465000D02*
X90460000Y-108285000D01*
X75040000Y-96375000D02*
G75*
G02*
X75540000Y-95875000I500000J0D01*
G01*
X75540000Y-106875000D02*
G75*
G02*
X75040000Y-106375000I1J500001D01*
G01*
%TO.C,R7*%
X95272936Y-108265000D02*
X95727064Y-108265000D01*
X95272936Y-109735000D02*
X95727064Y-109735000D01*
%TD*%
M02*
