M48
; DRILL file KiCad 10.0.3 date 2026-08-07T19:01:09
; FORMAT={-:-/ absolute / metric / decimal}
; #@! TF.CreationDate,2026-08-07T19:01:09+02:00
; #@! TF.GenerationSoftware,Kicad,Pcbnew,10.0.3
; #@! TF.FileFunction,Plated,1,2,PTH
FMAT,2
METRIC
; #@! TA.AperFunction,Plated,PTH,ComponentDrill
T1C0.200
; #@! TA.AperFunction,Plated,PTH,ViaDrill
T2C0.300
; #@! TA.AperFunction,Plated,PTH,ComponentDrill
T3C1.000
; #@! TA.AperFunction,Plated,PTH,ComponentDrill
T4C1.520
; #@! TA.AperFunction,Plated,PTH,ComponentDrill
T5C1.900
%
G90
G05
T1
X102.125Y-76.535
X102.125Y-77.935
X102.825Y-75.835
X102.825Y-77.235
X102.825Y-78.635
X103.525Y-76.535
X103.525Y-77.935
X104.225Y-75.835
X104.225Y-77.235
X104.225Y-78.635
X104.925Y-76.535
X104.925Y-77.935
X105.9Y-75.7
X105.9Y-77.1
X105.9Y-78.5
X106.6Y-76.4
X106.6Y-77.8
X107.3Y-75.7
X107.3Y-77.1
X107.3Y-78.5
X107.91Y-76.412
X107.91Y-77.812
T2
X73.5Y-80.0
X73.5Y-81.0
X77.0Y-75.5
X78.5Y-111.0
X82.0Y-87.5
X82.0Y-94.5
X82.5Y-101.275
X83.5Y-111.0
X84.0Y-101.275
X84.5Y-74.0
X84.5Y-111.0
X86.5Y-111.6
X92.0Y-94.5
X94.0Y-84.0
X96.0Y-89.5
X98.5Y-97.0
X102.0Y-94.5
X103.5Y-102.5
X103.5Y-105.0
X104.0Y-109.0
X108.5Y-89.75
X109.0Y-102.5
X109.5Y-90.5
X111.5Y-105.0
X113.5Y-90.5
X113.86Y-91.86
X115.0Y-90.5
X115.5Y-109.0
X118.5Y-73.5
X118.5Y-75.0
X119.0Y-118.0
X127.0Y-73.5
X131.5Y-107.5
X131.5Y-108.5
X132.0Y-75.0
X134.0Y-78.5
X134.5Y-79.0
X136.5Y-108.5
T3
X97.42Y-120.5
X99.96Y-120.5
X102.5Y-120.5
X105.04Y-120.5
X107.58Y-120.5
X110.12Y-120.5
X112.66Y-120.5
X114.5Y-97.0
X114.5Y-107.0
X115.2Y-120.5
X117.74Y-120.5
X120.28Y-120.5
T4
X76.875Y-115.037
X88.125Y-115.037
T5
X76.875Y-119.037
X88.125Y-119.037
M30
