%TF.GenerationSoftware,KiCad,Pcbnew,10.0.3*%
%TF.CreationDate,2026-08-07T19:01:10+02:00*%
%TF.ProjectId,flipperhat,666c6970-7065-4726-9861-742e6b696361,rev?*%
%TF.SameCoordinates,Original*%
%TF.FileFunction,Paste,Top*%
%TF.FilePolarity,Positive*%
%FSLAX46Y46*%
G04 Gerber Fmt 4.6, Leading zero omitted, Abs format (unit mm)*
G04 Created by KiCad (PCBNEW 10.0.3) date 2026-08-07 19:01:10*
%MOMM*%
%LPD*%
G01*
G04 APERTURE LIST*
G04 Aperture macros list*
%AMRoundRect*
0 Rectangle with rounded corners*
0 $1 Rounding radius*
0 $2 $3 $4 $5 $6 $7 $8 $9 X,Y pos of 4 corners*
0 Add a 4 corners polygon primitive as box body*
4,1,4,$2,$3,$4,$5,$6,$7,$8,$9,$2,$3,0*
0 Add four circle primitives for the rounded corners*
1,1,$1+$1,$2,$3*
1,1,$1+$1,$4,$5*
1,1,$1+$1,$6,$7*
1,1,$1+$1,$8,$9*
0 Add four rect primitives between the rounded corners*
20,1,$1+$1,$2,$3,$4,$5,0*
20,1,$1+$1,$4,$5,$6,$7,0*
20,1,$1+$1,$6,$7,$8,$9,0*
20,1,$1+$1,$8,$9,$2,$3,0*%
G04 Aperture macros list end*
%ADD10R,0.600000X1.150000*%
%ADD11R,0.300000X1.150000*%
%ADD12R,0.620000X0.600000*%
%ADD13RoundRect,0.249999X0.450001X1.425001X-0.450001X1.425001X-0.450001X-1.425001X0.450001X-1.425001X0*%
%ADD14RoundRect,0.249999X-1.425001X0.450001X-1.425001X-0.450001X1.425001X-0.450001X1.425001X0.450001X0*%
%ADD15R,0.900000X0.900000*%
%ADD16R,1.500000X0.900000*%
%ADD17R,0.900000X1.500000*%
%ADD18R,1.041000X3.988000*%
%ADD19R,10.744000X8.306000*%
%ADD20R,2.100000X1.400000*%
%ADD21RoundRect,0.250000X-0.350000X-0.450000X0.350000X-0.450000X0.350000X0.450000X-0.350000X0.450000X0*%
%ADD22R,1.500000X0.800000*%
%ADD23R,2.000000X1.450000*%
G04 APERTURE END LIST*
D10*
%TO.C,J1*%
X79300000Y-113862000D03*
X80100000Y-113862000D03*
D11*
X81250000Y-113862000D03*
X82250000Y-113862000D03*
X82750000Y-113862000D03*
X83750000Y-113862000D03*
D10*
X85700000Y-113862000D03*
X84900000Y-113862000D03*
D11*
X84250000Y-113862000D03*
X83250000Y-113862000D03*
X81750000Y-113862000D03*
X80750000Y-113862000D03*
%TD*%
D12*
%TO.C,C3*%
X115000000Y-117460000D03*
X115000000Y-116540000D03*
%TD*%
%TO.C,C1*%
X139000000Y-105683000D03*
X139000000Y-104763000D03*
%TD*%
D13*
%TO.C,R4*%
X126550000Y-95090000D03*
X120450000Y-95090000D03*
%TD*%
D14*
%TO.C,R9*%
X91000000Y-80450000D03*
X91000000Y-86550000D03*
%TD*%
D13*
%TO.C,R1*%
X126550000Y-109820000D03*
X120450000Y-109820000D03*
%TD*%
%TO.C,R3*%
X126550000Y-100000000D03*
X120450000Y-100000000D03*
%TD*%
D12*
%TO.C,C4*%
X91000000Y-78560000D03*
X91000000Y-77640000D03*
%TD*%
D15*
%TO.C,U1*%
X102125000Y-75835000D03*
X102125000Y-77235000D03*
X102125000Y-78635000D03*
X103525000Y-75835000D03*
X103525000Y-77235000D03*
X103525000Y-78635000D03*
X104925000Y-75835000D03*
X104925000Y-77235000D03*
X104925000Y-78635000D03*
D16*
X96275000Y-69515000D03*
X96275000Y-70785000D03*
X96275000Y-72055000D03*
X96275000Y-73325000D03*
X96275000Y-74595000D03*
X96275000Y-75865000D03*
X96275000Y-77135000D03*
X96275000Y-78405000D03*
X96275000Y-79675000D03*
X96275000Y-80945000D03*
X96275000Y-82215000D03*
X96275000Y-83485000D03*
X96275000Y-84755000D03*
X96275000Y-86025000D03*
D17*
X98040000Y-87275000D03*
X99310000Y-87275000D03*
X100580000Y-87275000D03*
X101850000Y-87275000D03*
X103120000Y-87275000D03*
X104390000Y-87275000D03*
X105660000Y-87275000D03*
X106930000Y-87275000D03*
X108200000Y-87275000D03*
X109470000Y-87275000D03*
X110740000Y-87275000D03*
X112010000Y-87275000D03*
D16*
X113775000Y-86025000D03*
X113775000Y-84755000D03*
X113775000Y-83485000D03*
X113775000Y-82215000D03*
X113775000Y-80945000D03*
X113775000Y-79675000D03*
X113775000Y-78405000D03*
X113775000Y-77135000D03*
X113775000Y-75865000D03*
X113775000Y-74595000D03*
X113775000Y-73325000D03*
X113775000Y-72055000D03*
X113775000Y-70785000D03*
X113775000Y-69515000D03*
%TD*%
D13*
%TO.C,R6*%
X126550000Y-85270000D03*
X120450000Y-85270000D03*
%TD*%
D14*
%TO.C,R8*%
X91000000Y-69550000D03*
X91000000Y-75650000D03*
%TD*%
D13*
%TO.C,R5*%
X126550000Y-90180000D03*
X120450000Y-90180000D03*
%TD*%
D18*
%TO.C,IC1*%
X133960000Y-98777000D03*
X136500000Y-98777000D03*
X139040000Y-98777000D03*
D19*
X136500000Y-88223000D03*
%TD*%
D20*
%TO.C,RESET_IC2*%
X76400000Y-72500000D03*
X76400000Y-77000000D03*
X85500000Y-72500000D03*
X85500000Y-77000000D03*
%TD*%
D12*
%TO.C,C2*%
X134000000Y-105683000D03*
X134000000Y-104763000D03*
%TD*%
D20*
%TO.C,flash_IC3*%
X76400000Y-83000000D03*
X76400000Y-87500000D03*
X85500000Y-83000000D03*
X85500000Y-87500000D03*
%TD*%
D21*
%TO.C,R10*%
X94500000Y-114000000D03*
X96500000Y-114000000D03*
%TD*%
D13*
%TO.C,R2*%
X126550000Y-104910000D03*
X120450000Y-104910000D03*
%TD*%
D22*
%TO.C,J2*%
X80800000Y-104575000D03*
X80800000Y-103475000D03*
X80800000Y-102375000D03*
X80800000Y-101275000D03*
X80800000Y-100175000D03*
X80800000Y-99075000D03*
X80800000Y-97975000D03*
X80800000Y-96875000D03*
D23*
X78200000Y-108250000D03*
X86500000Y-108250000D03*
X78200000Y-94500000D03*
X86500000Y-94500000D03*
%TD*%
D21*
%TO.C,R7*%
X94500000Y-109000000D03*
X96500000Y-109000000D03*
%TD*%
M02*
