%TF.GenerationSoftware,KiCad,Pcbnew,10.0.3*%
%TF.CreationDate,2026-08-07T19:01:10+02:00*%
%TF.ProjectId,flipperhat,666c6970-7065-4726-9861-742e6b696361,rev?*%
%TF.SameCoordinates,Original*%
%TF.FileFunction,Legend,Bot*%
%TF.FilePolarity,Positive*%
%FSLAX46Y46*%
G04 Gerber Fmt 4.6, Leading zero omitted, Abs format (unit mm)*
G04 Created by KiCad (PCBNEW 10.0.3) date 2026-08-07 19:01:10*
%MOMM*%
%LPD*%
G01*
G04 APERTURE LIST*
%ADD10C,0.200000*%
%ADD11C,0.150000*%
%ADD12C,0.254000*%
%ADD13C,0.120000*%
%ADD14C,0.100000*%
G04 APERTURE END LIST*
D10*
X92630326Y-80367219D02*
X92630326Y-79367219D01*
X92630326Y-79367219D02*
X92296993Y-80081504D01*
X92296993Y-80081504D02*
X91963660Y-79367219D01*
X91963660Y-79367219D02*
X91963660Y-80367219D01*
X90916041Y-80271980D02*
X90963660Y-80319600D01*
X90963660Y-80319600D02*
X91106517Y-80367219D01*
X91106517Y-80367219D02*
X91201755Y-80367219D01*
X91201755Y-80367219D02*
X91344612Y-80319600D01*
X91344612Y-80319600D02*
X91439850Y-80224361D01*
X91439850Y-80224361D02*
X91487469Y-80129123D01*
X91487469Y-80129123D02*
X91535088Y-79938647D01*
X91535088Y-79938647D02*
X91535088Y-79795790D01*
X91535088Y-79795790D02*
X91487469Y-79605314D01*
X91487469Y-79605314D02*
X91439850Y-79510076D01*
X91439850Y-79510076D02*
X91344612Y-79414838D01*
X91344612Y-79414838D02*
X91201755Y-79367219D01*
X91201755Y-79367219D02*
X91106517Y-79367219D01*
X91106517Y-79367219D02*
X90963660Y-79414838D01*
X90963660Y-79414838D02*
X90916041Y-79462457D01*
X90487469Y-80367219D02*
X90487469Y-79367219D01*
X90487469Y-79843409D02*
X89916041Y-79843409D01*
X89916041Y-80367219D02*
X89916041Y-79367219D01*
X89677946Y-80462457D02*
X88916041Y-80462457D01*
X88820802Y-79700552D02*
X88439850Y-79700552D01*
X88677945Y-80367219D02*
X88677945Y-79510076D01*
X88677945Y-79510076D02*
X88630326Y-79414838D01*
X88630326Y-79414838D02*
X88535088Y-79367219D01*
X88535088Y-79367219D02*
X88439850Y-79367219D01*
X87963659Y-80367219D02*
X88058897Y-80319600D01*
X88058897Y-80319600D02*
X88106516Y-80224361D01*
X88106516Y-80224361D02*
X88106516Y-79367219D01*
X87630325Y-80319600D02*
X87535087Y-80367219D01*
X87535087Y-80367219D02*
X87344611Y-80367219D01*
X87344611Y-80367219D02*
X87249373Y-80319600D01*
X87249373Y-80319600D02*
X87201754Y-80224361D01*
X87201754Y-80224361D02*
X87201754Y-80176742D01*
X87201754Y-80176742D02*
X87249373Y-80081504D01*
X87249373Y-80081504D02*
X87344611Y-80033885D01*
X87344611Y-80033885D02*
X87487468Y-80033885D01*
X87487468Y-80033885D02*
X87582706Y-79986266D01*
X87582706Y-79986266D02*
X87630325Y-79891028D01*
X87630325Y-79891028D02*
X87630325Y-79843409D01*
X87630325Y-79843409D02*
X87582706Y-79748171D01*
X87582706Y-79748171D02*
X87487468Y-79700552D01*
X87487468Y-79700552D02*
X87344611Y-79700552D01*
X87344611Y-79700552D02*
X87249373Y-79748171D01*
X86773182Y-80367219D02*
X86773182Y-79367219D01*
X86344611Y-80367219D02*
X86344611Y-79843409D01*
X86344611Y-79843409D02*
X86392230Y-79748171D01*
X86392230Y-79748171D02*
X86487468Y-79700552D01*
X86487468Y-79700552D02*
X86630325Y-79700552D01*
X86630325Y-79700552D02*
X86725563Y-79748171D01*
X86725563Y-79748171D02*
X86773182Y-79795790D01*
X92296993Y-86343409D02*
X92154136Y-86391028D01*
X92154136Y-86391028D02*
X92106517Y-86438647D01*
X92106517Y-86438647D02*
X92058898Y-86533885D01*
X92058898Y-86533885D02*
X92058898Y-86676742D01*
X92058898Y-86676742D02*
X92106517Y-86771980D01*
X92106517Y-86771980D02*
X92154136Y-86819600D01*
X92154136Y-86819600D02*
X92249374Y-86867219D01*
X92249374Y-86867219D02*
X92630326Y-86867219D01*
X92630326Y-86867219D02*
X92630326Y-85867219D01*
X92630326Y-85867219D02*
X92296993Y-85867219D01*
X92296993Y-85867219D02*
X92201755Y-85914838D01*
X92201755Y-85914838D02*
X92154136Y-85962457D01*
X92154136Y-85962457D02*
X92106517Y-86057695D01*
X92106517Y-86057695D02*
X92106517Y-86152933D01*
X92106517Y-86152933D02*
X92154136Y-86248171D01*
X92154136Y-86248171D02*
X92201755Y-86295790D01*
X92201755Y-86295790D02*
X92296993Y-86343409D01*
X92296993Y-86343409D02*
X92630326Y-86343409D01*
X91058898Y-86771980D02*
X91106517Y-86819600D01*
X91106517Y-86819600D02*
X91249374Y-86867219D01*
X91249374Y-86867219D02*
X91344612Y-86867219D01*
X91344612Y-86867219D02*
X91487469Y-86819600D01*
X91487469Y-86819600D02*
X91582707Y-86724361D01*
X91582707Y-86724361D02*
X91630326Y-86629123D01*
X91630326Y-86629123D02*
X91677945Y-86438647D01*
X91677945Y-86438647D02*
X91677945Y-86295790D01*
X91677945Y-86295790D02*
X91630326Y-86105314D01*
X91630326Y-86105314D02*
X91582707Y-86010076D01*
X91582707Y-86010076D02*
X91487469Y-85914838D01*
X91487469Y-85914838D02*
X91344612Y-85867219D01*
X91344612Y-85867219D02*
X91249374Y-85867219D01*
X91249374Y-85867219D02*
X91106517Y-85914838D01*
X91106517Y-85914838D02*
X91058898Y-85962457D01*
X90630326Y-86867219D02*
X90630326Y-85867219D01*
X90630326Y-86343409D02*
X90058898Y-86343409D01*
X90058898Y-86867219D02*
X90058898Y-85867219D01*
X89820803Y-86962457D02*
X89058898Y-86962457D01*
X88963659Y-86200552D02*
X88582707Y-86200552D01*
X88820802Y-86867219D02*
X88820802Y-86010076D01*
X88820802Y-86010076D02*
X88773183Y-85914838D01*
X88773183Y-85914838D02*
X88677945Y-85867219D01*
X88677945Y-85867219D02*
X88582707Y-85867219D01*
X88106516Y-86867219D02*
X88201754Y-86819600D01*
X88201754Y-86819600D02*
X88249373Y-86724361D01*
X88249373Y-86724361D02*
X88249373Y-85867219D01*
X87773182Y-86819600D02*
X87677944Y-86867219D01*
X87677944Y-86867219D02*
X87487468Y-86867219D01*
X87487468Y-86867219D02*
X87392230Y-86819600D01*
X87392230Y-86819600D02*
X87344611Y-86724361D01*
X87344611Y-86724361D02*
X87344611Y-86676742D01*
X87344611Y-86676742D02*
X87392230Y-86581504D01*
X87392230Y-86581504D02*
X87487468Y-86533885D01*
X87487468Y-86533885D02*
X87630325Y-86533885D01*
X87630325Y-86533885D02*
X87725563Y-86486266D01*
X87725563Y-86486266D02*
X87773182Y-86391028D01*
X87773182Y-86391028D02*
X87773182Y-86343409D01*
X87773182Y-86343409D02*
X87725563Y-86248171D01*
X87725563Y-86248171D02*
X87630325Y-86200552D01*
X87630325Y-86200552D02*
X87487468Y-86200552D01*
X87487468Y-86200552D02*
X87392230Y-86248171D01*
X86916039Y-86867219D02*
X86916039Y-85867219D01*
X86487468Y-86867219D02*
X86487468Y-86343409D01*
X86487468Y-86343409D02*
X86535087Y-86248171D01*
X86535087Y-86248171D02*
X86630325Y-86200552D01*
X86630325Y-86200552D02*
X86773182Y-86200552D01*
X86773182Y-86200552D02*
X86868420Y-86248171D01*
X86868420Y-86248171D02*
X86916039Y-86295790D01*
X101130326Y-90867219D02*
X101130326Y-89867219D01*
X101130326Y-89867219D02*
X100796993Y-90581504D01*
X100796993Y-90581504D02*
X100463660Y-89867219D01*
X100463660Y-89867219D02*
X100463660Y-90867219D01*
X99416041Y-90771980D02*
X99463660Y-90819600D01*
X99463660Y-90819600D02*
X99606517Y-90867219D01*
X99606517Y-90867219D02*
X99701755Y-90867219D01*
X99701755Y-90867219D02*
X99844612Y-90819600D01*
X99844612Y-90819600D02*
X99939850Y-90724361D01*
X99939850Y-90724361D02*
X99987469Y-90629123D01*
X99987469Y-90629123D02*
X100035088Y-90438647D01*
X100035088Y-90438647D02*
X100035088Y-90295790D01*
X100035088Y-90295790D02*
X99987469Y-90105314D01*
X99987469Y-90105314D02*
X99939850Y-90010076D01*
X99939850Y-90010076D02*
X99844612Y-89914838D01*
X99844612Y-89914838D02*
X99701755Y-89867219D01*
X99701755Y-89867219D02*
X99606517Y-89867219D01*
X99606517Y-89867219D02*
X99463660Y-89914838D01*
X99463660Y-89914838D02*
X99416041Y-89962457D01*
X98987469Y-90867219D02*
X98987469Y-89867219D01*
X98987469Y-90343409D02*
X98416041Y-90343409D01*
X98416041Y-90867219D02*
X98416041Y-89867219D01*
X98177946Y-90962457D02*
X97416041Y-90962457D01*
X97320802Y-90200552D02*
X96939850Y-90200552D01*
X97177945Y-90867219D02*
X97177945Y-90010076D01*
X97177945Y-90010076D02*
X97130326Y-89914838D01*
X97130326Y-89914838D02*
X97035088Y-89867219D01*
X97035088Y-89867219D02*
X96939850Y-89867219D01*
X96463659Y-90867219D02*
X96558897Y-90819600D01*
X96558897Y-90819600D02*
X96606516Y-90724361D01*
X96606516Y-90724361D02*
X96606516Y-89867219D01*
X96130325Y-90819600D02*
X96035087Y-90867219D01*
X96035087Y-90867219D02*
X95844611Y-90867219D01*
X95844611Y-90867219D02*
X95749373Y-90819600D01*
X95749373Y-90819600D02*
X95701754Y-90724361D01*
X95701754Y-90724361D02*
X95701754Y-90676742D01*
X95701754Y-90676742D02*
X95749373Y-90581504D01*
X95749373Y-90581504D02*
X95844611Y-90533885D01*
X95844611Y-90533885D02*
X95987468Y-90533885D01*
X95987468Y-90533885D02*
X96082706Y-90486266D01*
X96082706Y-90486266D02*
X96130325Y-90391028D01*
X96130325Y-90391028D02*
X96130325Y-90343409D01*
X96130325Y-90343409D02*
X96082706Y-90248171D01*
X96082706Y-90248171D02*
X95987468Y-90200552D01*
X95987468Y-90200552D02*
X95844611Y-90200552D01*
X95844611Y-90200552D02*
X95749373Y-90248171D01*
X95273182Y-90867219D02*
X95273182Y-89867219D01*
X94844611Y-90867219D02*
X94844611Y-90343409D01*
X94844611Y-90343409D02*
X94892230Y-90248171D01*
X94892230Y-90248171D02*
X94987468Y-90200552D01*
X94987468Y-90200552D02*
X95130325Y-90200552D01*
X95130325Y-90200552D02*
X95225563Y-90248171D01*
X95225563Y-90248171D02*
X95273182Y-90295790D01*
X100796993Y-96843409D02*
X100654136Y-96891028D01*
X100654136Y-96891028D02*
X100606517Y-96938647D01*
X100606517Y-96938647D02*
X100558898Y-97033885D01*
X100558898Y-97033885D02*
X100558898Y-97176742D01*
X100558898Y-97176742D02*
X100606517Y-97271980D01*
X100606517Y-97271980D02*
X100654136Y-97319600D01*
X100654136Y-97319600D02*
X100749374Y-97367219D01*
X100749374Y-97367219D02*
X101130326Y-97367219D01*
X101130326Y-97367219D02*
X101130326Y-96367219D01*
X101130326Y-96367219D02*
X100796993Y-96367219D01*
X100796993Y-96367219D02*
X100701755Y-96414838D01*
X100701755Y-96414838D02*
X100654136Y-96462457D01*
X100654136Y-96462457D02*
X100606517Y-96557695D01*
X100606517Y-96557695D02*
X100606517Y-96652933D01*
X100606517Y-96652933D02*
X100654136Y-96748171D01*
X100654136Y-96748171D02*
X100701755Y-96795790D01*
X100701755Y-96795790D02*
X100796993Y-96843409D01*
X100796993Y-96843409D02*
X101130326Y-96843409D01*
X99558898Y-97271980D02*
X99606517Y-97319600D01*
X99606517Y-97319600D02*
X99749374Y-97367219D01*
X99749374Y-97367219D02*
X99844612Y-97367219D01*
X99844612Y-97367219D02*
X99987469Y-97319600D01*
X99987469Y-97319600D02*
X100082707Y-97224361D01*
X100082707Y-97224361D02*
X100130326Y-97129123D01*
X100130326Y-97129123D02*
X100177945Y-96938647D01*
X100177945Y-96938647D02*
X100177945Y-96795790D01*
X100177945Y-96795790D02*
X100130326Y-96605314D01*
X100130326Y-96605314D02*
X100082707Y-96510076D01*
X100082707Y-96510076D02*
X99987469Y-96414838D01*
X99987469Y-96414838D02*
X99844612Y-96367219D01*
X99844612Y-96367219D02*
X99749374Y-96367219D01*
X99749374Y-96367219D02*
X99606517Y-96414838D01*
X99606517Y-96414838D02*
X99558898Y-96462457D01*
X99130326Y-97367219D02*
X99130326Y-96367219D01*
X99130326Y-96843409D02*
X98558898Y-96843409D01*
X98558898Y-97367219D02*
X98558898Y-96367219D01*
X98320803Y-97462457D02*
X97558898Y-97462457D01*
X97463659Y-96700552D02*
X97082707Y-96700552D01*
X97320802Y-97367219D02*
X97320802Y-96510076D01*
X97320802Y-96510076D02*
X97273183Y-96414838D01*
X97273183Y-96414838D02*
X97177945Y-96367219D01*
X97177945Y-96367219D02*
X97082707Y-96367219D01*
X96606516Y-97367219D02*
X96701754Y-97319600D01*
X96701754Y-97319600D02*
X96749373Y-97224361D01*
X96749373Y-97224361D02*
X96749373Y-96367219D01*
X96273182Y-97319600D02*
X96177944Y-97367219D01*
X96177944Y-97367219D02*
X95987468Y-97367219D01*
X95987468Y-97367219D02*
X95892230Y-97319600D01*
X95892230Y-97319600D02*
X95844611Y-97224361D01*
X95844611Y-97224361D02*
X95844611Y-97176742D01*
X95844611Y-97176742D02*
X95892230Y-97081504D01*
X95892230Y-97081504D02*
X95987468Y-97033885D01*
X95987468Y-97033885D02*
X96130325Y-97033885D01*
X96130325Y-97033885D02*
X96225563Y-96986266D01*
X96225563Y-96986266D02*
X96273182Y-96891028D01*
X96273182Y-96891028D02*
X96273182Y-96843409D01*
X96273182Y-96843409D02*
X96225563Y-96748171D01*
X96225563Y-96748171D02*
X96130325Y-96700552D01*
X96130325Y-96700552D02*
X95987468Y-96700552D01*
X95987468Y-96700552D02*
X95892230Y-96748171D01*
X95416039Y-97367219D02*
X95416039Y-96367219D01*
X94987468Y-97367219D02*
X94987468Y-96843409D01*
X94987468Y-96843409D02*
X95035087Y-96748171D01*
X95035087Y-96748171D02*
X95130325Y-96700552D01*
X95130325Y-96700552D02*
X95273182Y-96700552D01*
X95273182Y-96700552D02*
X95368420Y-96748171D01*
X95368420Y-96748171D02*
X95416039Y-96795790D01*
D11*
X91584819Y-71907142D02*
X91108628Y-71573809D01*
X91584819Y-71335714D02*
X90584819Y-71335714D01*
X90584819Y-71335714D02*
X90584819Y-71716666D01*
X90584819Y-71716666D02*
X90632438Y-71811904D01*
X90632438Y-71811904D02*
X90680057Y-71859523D01*
X90680057Y-71859523D02*
X90775295Y-71907142D01*
X90775295Y-71907142D02*
X90918152Y-71907142D01*
X90918152Y-71907142D02*
X91013390Y-71859523D01*
X91013390Y-71859523D02*
X91061009Y-71811904D01*
X91061009Y-71811904D02*
X91108628Y-71716666D01*
X91108628Y-71716666D02*
X91108628Y-71335714D01*
X91584819Y-72859523D02*
X91584819Y-72288095D01*
X91584819Y-72573809D02*
X90584819Y-72573809D01*
X90584819Y-72573809D02*
X90727676Y-72478571D01*
X90727676Y-72478571D02*
X90822914Y-72383333D01*
X90822914Y-72383333D02*
X90870533Y-72288095D01*
X90680057Y-73240476D02*
X90632438Y-73288095D01*
X90632438Y-73288095D02*
X90584819Y-73383333D01*
X90584819Y-73383333D02*
X90584819Y-73621428D01*
X90584819Y-73621428D02*
X90632438Y-73716666D01*
X90632438Y-73716666D02*
X90680057Y-73764285D01*
X90680057Y-73764285D02*
X90775295Y-73811904D01*
X90775295Y-73811904D02*
X90870533Y-73811904D01*
X90870533Y-73811904D02*
X91013390Y-73764285D01*
X91013390Y-73764285D02*
X91584819Y-73192857D01*
X91584819Y-73192857D02*
X91584819Y-73811904D01*
X125326190Y-83154819D02*
X125326190Y-83869104D01*
X125326190Y-83869104D02*
X125373809Y-84011961D01*
X125373809Y-84011961D02*
X125469047Y-84107200D01*
X125469047Y-84107200D02*
X125611904Y-84154819D01*
X125611904Y-84154819D02*
X125707142Y-84154819D01*
X124849999Y-84154819D02*
X124849999Y-83154819D01*
X124849999Y-83154819D02*
X124469047Y-83154819D01*
X124469047Y-83154819D02*
X124373809Y-83202438D01*
X124373809Y-83202438D02*
X124326190Y-83250057D01*
X124326190Y-83250057D02*
X124278571Y-83345295D01*
X124278571Y-83345295D02*
X124278571Y-83488152D01*
X124278571Y-83488152D02*
X124326190Y-83583390D01*
X124326190Y-83583390D02*
X124373809Y-83631009D01*
X124373809Y-83631009D02*
X124469047Y-83678628D01*
X124469047Y-83678628D02*
X124849999Y-83678628D01*
X123945237Y-83154819D02*
X123326190Y-83154819D01*
X123326190Y-83154819D02*
X123659523Y-83535771D01*
X123659523Y-83535771D02*
X123516666Y-83535771D01*
X123516666Y-83535771D02*
X123421428Y-83583390D01*
X123421428Y-83583390D02*
X123373809Y-83631009D01*
X123373809Y-83631009D02*
X123326190Y-83726247D01*
X123326190Y-83726247D02*
X123326190Y-83964342D01*
X123326190Y-83964342D02*
X123373809Y-84059580D01*
X123373809Y-84059580D02*
X123421428Y-84107200D01*
X123421428Y-84107200D02*
X123516666Y-84154819D01*
X123516666Y-84154819D02*
X123802380Y-84154819D01*
X123802380Y-84154819D02*
X123897618Y-84107200D01*
X123897618Y-84107200D02*
X123945237Y-84059580D01*
X123135714Y-84250057D02*
X122373809Y-84250057D01*
X122278570Y-83488152D02*
X121897618Y-83488152D01*
X122135713Y-84154819D02*
X122135713Y-83297676D01*
X122135713Y-83297676D02*
X122088094Y-83202438D01*
X122088094Y-83202438D02*
X121992856Y-83154819D01*
X121992856Y-83154819D02*
X121897618Y-83154819D01*
X121040475Y-84154819D02*
X121611903Y-84154819D01*
X121326189Y-84154819D02*
X121326189Y-83154819D01*
X121326189Y-83154819D02*
X121421427Y-83297676D01*
X121421427Y-83297676D02*
X121516665Y-83392914D01*
X121516665Y-83392914D02*
X121611903Y-83440533D01*
D12*
X124453365Y-80328333D02*
X124513842Y-80267857D01*
X124513842Y-80267857D02*
X124574318Y-80086428D01*
X124574318Y-80086428D02*
X124574318Y-79965476D01*
X124574318Y-79965476D02*
X124513842Y-79784047D01*
X124513842Y-79784047D02*
X124392889Y-79663095D01*
X124392889Y-79663095D02*
X124271937Y-79602618D01*
X124271937Y-79602618D02*
X124030032Y-79542142D01*
X124030032Y-79542142D02*
X123848603Y-79542142D01*
X123848603Y-79542142D02*
X123606699Y-79602618D01*
X123606699Y-79602618D02*
X123485746Y-79663095D01*
X123485746Y-79663095D02*
X123364794Y-79784047D01*
X123364794Y-79784047D02*
X123304318Y-79965476D01*
X123304318Y-79965476D02*
X123304318Y-80086428D01*
X123304318Y-80086428D02*
X123364794Y-80267857D01*
X123364794Y-80267857D02*
X123425270Y-80328333D01*
X123304318Y-81477380D02*
X123304318Y-80872618D01*
X123304318Y-80872618D02*
X123909080Y-80812142D01*
X123909080Y-80812142D02*
X123848603Y-80872618D01*
X123848603Y-80872618D02*
X123788127Y-80993571D01*
X123788127Y-80993571D02*
X123788127Y-81295952D01*
X123788127Y-81295952D02*
X123848603Y-81416904D01*
X123848603Y-81416904D02*
X123909080Y-81477380D01*
X123909080Y-81477380D02*
X124030032Y-81537857D01*
X124030032Y-81537857D02*
X124332413Y-81537857D01*
X124332413Y-81537857D02*
X124453365Y-81477380D01*
X124453365Y-81477380D02*
X124513842Y-81416904D01*
X124513842Y-81416904D02*
X124574318Y-81295952D01*
X124574318Y-81295952D02*
X124574318Y-80993571D01*
X124574318Y-80993571D02*
X124513842Y-80872618D01*
X124513842Y-80872618D02*
X124453365Y-80812142D01*
D11*
X99254819Y-92866666D02*
X99969104Y-92866666D01*
X99969104Y-92866666D02*
X100111961Y-92819047D01*
X100111961Y-92819047D02*
X100207200Y-92723809D01*
X100207200Y-92723809D02*
X100254819Y-92580952D01*
X100254819Y-92580952D02*
X100254819Y-92485714D01*
X100254819Y-93342857D02*
X99254819Y-93342857D01*
X99254819Y-93342857D02*
X99254819Y-93723809D01*
X99254819Y-93723809D02*
X99302438Y-93819047D01*
X99302438Y-93819047D02*
X99350057Y-93866666D01*
X99350057Y-93866666D02*
X99445295Y-93914285D01*
X99445295Y-93914285D02*
X99588152Y-93914285D01*
X99588152Y-93914285D02*
X99683390Y-93866666D01*
X99683390Y-93866666D02*
X99731009Y-93819047D01*
X99731009Y-93819047D02*
X99778628Y-93723809D01*
X99778628Y-93723809D02*
X99778628Y-93342857D01*
X99350057Y-94295238D02*
X99302438Y-94342857D01*
X99302438Y-94342857D02*
X99254819Y-94438095D01*
X99254819Y-94438095D02*
X99254819Y-94676190D01*
X99254819Y-94676190D02*
X99302438Y-94771428D01*
X99302438Y-94771428D02*
X99350057Y-94819047D01*
X99350057Y-94819047D02*
X99445295Y-94866666D01*
X99445295Y-94866666D02*
X99540533Y-94866666D01*
X99540533Y-94866666D02*
X99683390Y-94819047D01*
X99683390Y-94819047D02*
X100254819Y-94247619D01*
X100254819Y-94247619D02*
X100254819Y-94866666D01*
X116145180Y-86801904D02*
X115335657Y-86801904D01*
X115335657Y-86801904D02*
X115240419Y-86754285D01*
X115240419Y-86754285D02*
X115192800Y-86706666D01*
X115192800Y-86706666D02*
X115145180Y-86611428D01*
X115145180Y-86611428D02*
X115145180Y-86420952D01*
X115145180Y-86420952D02*
X115192800Y-86325714D01*
X115192800Y-86325714D02*
X115240419Y-86278095D01*
X115240419Y-86278095D02*
X115335657Y-86230476D01*
X115335657Y-86230476D02*
X116145180Y-86230476D01*
X116049942Y-85801904D02*
X116097561Y-85754285D01*
X116097561Y-85754285D02*
X116145180Y-85659047D01*
X116145180Y-85659047D02*
X116145180Y-85420952D01*
X116145180Y-85420952D02*
X116097561Y-85325714D01*
X116097561Y-85325714D02*
X116049942Y-85278095D01*
X116049942Y-85278095D02*
X115954704Y-85230476D01*
X115954704Y-85230476D02*
X115859466Y-85230476D01*
X115859466Y-85230476D02*
X115716609Y-85278095D01*
X115716609Y-85278095D02*
X115145180Y-85849523D01*
X115145180Y-85849523D02*
X115145180Y-85230476D01*
D12*
X115316428Y-102574318D02*
X115921190Y-102574318D01*
X115921190Y-102574318D02*
X115921190Y-101304318D01*
X114953571Y-102513842D02*
X114772142Y-102574318D01*
X114772142Y-102574318D02*
X114469761Y-102574318D01*
X114469761Y-102574318D02*
X114348809Y-102513842D01*
X114348809Y-102513842D02*
X114288333Y-102453365D01*
X114288333Y-102453365D02*
X114227856Y-102332413D01*
X114227856Y-102332413D02*
X114227856Y-102211461D01*
X114227856Y-102211461D02*
X114288333Y-102090508D01*
X114288333Y-102090508D02*
X114348809Y-102030032D01*
X114348809Y-102030032D02*
X114469761Y-101969556D01*
X114469761Y-101969556D02*
X114711666Y-101909080D01*
X114711666Y-101909080D02*
X114832618Y-101848603D01*
X114832618Y-101848603D02*
X114893095Y-101788127D01*
X114893095Y-101788127D02*
X114953571Y-101667175D01*
X114953571Y-101667175D02*
X114953571Y-101546222D01*
X114953571Y-101546222D02*
X114893095Y-101425270D01*
X114893095Y-101425270D02*
X114832618Y-101364794D01*
X114832618Y-101364794D02*
X114711666Y-101304318D01*
X114711666Y-101304318D02*
X114409285Y-101304318D01*
X114409285Y-101304318D02*
X114227856Y-101364794D01*
X113018332Y-102574318D02*
X113744047Y-102574318D01*
X113381190Y-102574318D02*
X113381190Y-101304318D01*
X113381190Y-101304318D02*
X113502142Y-101485746D01*
X113502142Y-101485746D02*
X113623094Y-101606699D01*
X113623094Y-101606699D02*
X113744047Y-101667175D01*
X81695270Y-74379047D02*
X81634794Y-74258095D01*
X81634794Y-74258095D02*
X81513842Y-74137142D01*
X81513842Y-74137142D02*
X81332413Y-73955714D01*
X81332413Y-73955714D02*
X81271937Y-73834761D01*
X81271937Y-73834761D02*
X81271937Y-73713809D01*
X81574318Y-73774285D02*
X81513842Y-73653333D01*
X81513842Y-73653333D02*
X81392889Y-73532380D01*
X81392889Y-73532380D02*
X81150984Y-73471904D01*
X81150984Y-73471904D02*
X80727651Y-73471904D01*
X80727651Y-73471904D02*
X80485746Y-73532380D01*
X80485746Y-73532380D02*
X80364794Y-73653333D01*
X80364794Y-73653333D02*
X80304318Y-73774285D01*
X80304318Y-73774285D02*
X80304318Y-74016190D01*
X80304318Y-74016190D02*
X80364794Y-74137142D01*
X80364794Y-74137142D02*
X80485746Y-74258095D01*
X80485746Y-74258095D02*
X80727651Y-74318571D01*
X80727651Y-74318571D02*
X81150984Y-74318571D01*
X81150984Y-74318571D02*
X81392889Y-74258095D01*
X81392889Y-74258095D02*
X81513842Y-74137142D01*
X81513842Y-74137142D02*
X81574318Y-74016190D01*
X81574318Y-74016190D02*
X81574318Y-73774285D01*
X81574318Y-75528095D02*
X81574318Y-74802380D01*
X81574318Y-75165237D02*
X80304318Y-75165237D01*
X80304318Y-75165237D02*
X80485746Y-75044285D01*
X80485746Y-75044285D02*
X80606699Y-74923333D01*
X80606699Y-74923333D02*
X80667175Y-74802380D01*
D11*
X121824819Y-73857142D02*
X121348628Y-73523809D01*
X121824819Y-73285714D02*
X120824819Y-73285714D01*
X120824819Y-73285714D02*
X120824819Y-73666666D01*
X120824819Y-73666666D02*
X120872438Y-73761904D01*
X120872438Y-73761904D02*
X120920057Y-73809523D01*
X120920057Y-73809523D02*
X121015295Y-73857142D01*
X121015295Y-73857142D02*
X121158152Y-73857142D01*
X121158152Y-73857142D02*
X121253390Y-73809523D01*
X121253390Y-73809523D02*
X121301009Y-73761904D01*
X121301009Y-73761904D02*
X121348628Y-73666666D01*
X121348628Y-73666666D02*
X121348628Y-73285714D01*
X121824819Y-74809523D02*
X121824819Y-74238095D01*
X121824819Y-74523809D02*
X120824819Y-74523809D01*
X120824819Y-74523809D02*
X120967676Y-74428571D01*
X120967676Y-74428571D02*
X121062914Y-74333333D01*
X121062914Y-74333333D02*
X121110533Y-74238095D01*
X121824819Y-75761904D02*
X121824819Y-75190476D01*
X121824819Y-75476190D02*
X120824819Y-75476190D01*
X120824819Y-75476190D02*
X120967676Y-75380952D01*
X120967676Y-75380952D02*
X121062914Y-75285714D01*
X121062914Y-75285714D02*
X121110533Y-75190476D01*
X87154819Y-82366666D02*
X87869104Y-82366666D01*
X87869104Y-82366666D02*
X88011961Y-82319047D01*
X88011961Y-82319047D02*
X88107200Y-82223809D01*
X88107200Y-82223809D02*
X88154819Y-82080952D01*
X88154819Y-82080952D02*
X88154819Y-81985714D01*
X88154819Y-82842857D02*
X87154819Y-82842857D01*
X87154819Y-82842857D02*
X87154819Y-83223809D01*
X87154819Y-83223809D02*
X87202438Y-83319047D01*
X87202438Y-83319047D02*
X87250057Y-83366666D01*
X87250057Y-83366666D02*
X87345295Y-83414285D01*
X87345295Y-83414285D02*
X87488152Y-83414285D01*
X87488152Y-83414285D02*
X87583390Y-83366666D01*
X87583390Y-83366666D02*
X87631009Y-83319047D01*
X87631009Y-83319047D02*
X87678628Y-83223809D01*
X87678628Y-83223809D02*
X87678628Y-82842857D01*
X88154819Y-84366666D02*
X88154819Y-83795238D01*
X88154819Y-84080952D02*
X87154819Y-84080952D01*
X87154819Y-84080952D02*
X87297676Y-83985714D01*
X87297676Y-83985714D02*
X87392914Y-83890476D01*
X87392914Y-83890476D02*
X87440533Y-83795238D01*
%TO.C,R12*%
D13*
X86790000Y-74727064D02*
X86790000Y-70372936D01*
X90210000Y-74727064D02*
X90210000Y-70372936D01*
%TO.C,JP3_f1*%
X121950000Y-85200000D02*
X121950000Y-85800000D01*
X122650000Y-86500000D02*
X124050000Y-86500000D01*
X124050000Y-84500000D02*
X122650000Y-84500000D01*
X124750000Y-85800000D02*
X124750000Y-85200000D01*
X121950000Y-85200000D02*
G75*
G02*
X122650000Y-84500000I700000J0D01*
G01*
X122650000Y-86500000D02*
G75*
G02*
X121950000Y-85800000I0J700000D01*
G01*
X124050000Y-84500000D02*
G75*
G02*
X124750000Y-85200000I1J-699999D01*
G01*
X124750000Y-85800000D02*
G75*
G02*
X124050000Y-86500000I-699999J-1D01*
G01*
%TO.C,JP2*%
X96500000Y-95200000D02*
X96500000Y-94600000D01*
X96800000Y-94900000D02*
X96500000Y-94600000D01*
X96800000Y-94900000D02*
X96500000Y-95200000D01*
X97000000Y-92300000D02*
X97000000Y-95100000D01*
X97700000Y-95750000D02*
X98300000Y-95750000D01*
X98300000Y-91650000D02*
X97700000Y-91650000D01*
X99000000Y-95100000D02*
X99000000Y-92300000D01*
X97000000Y-92350000D02*
G75*
G02*
X97700000Y-91650000I700000J0D01*
G01*
X97700000Y-95750000D02*
G75*
G02*
X97000000Y-95050000I-1J699999D01*
G01*
X98300000Y-91650000D02*
G75*
G02*
X99000000Y-92350000I0J-700000D01*
G01*
X99000000Y-95050000D02*
G75*
G02*
X98300000Y-95750000I-699999J-1D01*
G01*
%TO.C,U2*%
X95900000Y-61740000D02*
X95900000Y-67940000D01*
X95900000Y-87590000D02*
X95900000Y-86590000D01*
X95900000Y-87590000D02*
X97400000Y-87590000D01*
X114300000Y-61740000D02*
X95900000Y-61740000D01*
X114300000Y-61740000D02*
X114300000Y-67940000D01*
X114300000Y-86590000D02*
X114300000Y-87590000D01*
X114300000Y-87590000D02*
X112800000Y-87590000D01*
X114300000Y-68615000D02*
X114800000Y-68615000D01*
X114300000Y-68115000D01*
X114300000Y-68615000D01*
G36*
X114800000Y-68615000D02*
G01*
X114300000Y-68615000D01*
X114300000Y-68115000D01*
X114800000Y-68615000D01*
G37*
%TO.C,LS1*%
D10*
X114500000Y-93500000D02*
X114500000Y-93500000D01*
X114500000Y-110500000D02*
X114500000Y-110500000D01*
D14*
X114500000Y-111000000D02*
X114500000Y-111000000D01*
X114500000Y-111100000D02*
X114500000Y-111100000D01*
D10*
X114500000Y-93500000D02*
G75*
G02*
X114500000Y-110500000I0J-8500000D01*
G01*
X114500000Y-110500000D02*
G75*
G02*
X114500000Y-93500000I0J8500000D01*
G01*
D14*
X114500000Y-111000000D02*
G75*
G02*
X114500000Y-111100000I0J-50000D01*
G01*
X114500000Y-111100000D02*
G75*
G02*
X114500000Y-111000000I0J50000D01*
G01*
%TO.C,Q1*%
D10*
X80000000Y-74425000D02*
X80000000Y-74575000D01*
X80000000Y-74575000D02*
X82000000Y-74575000D01*
X82000000Y-74425000D02*
X80000000Y-74425000D01*
X82000000Y-74575000D02*
X82000000Y-74425000D01*
X82175000Y-76075000D02*
X82175000Y-74925000D01*
%TO.C,R11*%
D13*
X122290000Y-72322936D02*
X122290000Y-76677064D01*
X125710000Y-72322936D02*
X125710000Y-76677064D01*
%TO.C,JP1*%
X88500000Y-81800000D02*
X88500000Y-84600000D01*
X89200000Y-85250000D02*
X89800000Y-85250000D01*
X89800000Y-81150000D02*
X89200000Y-81150000D01*
X90500000Y-84600000D02*
X90500000Y-81800000D01*
X90700000Y-82000000D02*
X91000000Y-81700000D01*
X90700000Y-82000000D02*
X91000000Y-82300000D01*
X91000000Y-81700000D02*
X91000000Y-82300000D01*
X88500000Y-81850000D02*
G75*
G02*
X89200000Y-81150000I699999J1D01*
G01*
X89200000Y-85250000D02*
G75*
G02*
X88500000Y-84550000I0J700000D01*
G01*
X89800000Y-81150000D02*
G75*
G02*
X90500000Y-81850000I1J-699999D01*
G01*
X90500000Y-84550000D02*
G75*
G02*
X89800000Y-85250000I-700000J0D01*
G01*
%TD*%
M02*
